<svg xmlns="http://www.w3.org/2000/svg" viewBox="127.1 69.7 544.7 392" role="img" aria-label="SMARI Institute logo"><style type="text/css">.st0{fill:#f04e3e}.st1{fill:#39bba1}.st2{fill:#fbca0d}.st3{fill:#89c242}.st4{fill:#e8e117}</style><g><path d="M273.5 405h-2.7c0-2.6-1.1-3.9-3.4-3.9-1.2 0-2.1.3-2.7.9-.6.6-1 1.5-1 2.7 0 .8.2 1.6.6 2.1.4.6.9 1 1.5 1.3.6.3 1.3.6 2 .8.7.2 1.5.5 2.2.8s1.4.6 2 1c.6.4 1.1 1 1.5 1.8.4.8.6 1.7.6 2.8 0 1.2-.2 2.3-.6 3.2-.4.9-1 1.6-1.7 2-.7.5-1.4.8-2.2 1-.8.2-1.6.3-2.4.3-2.5 0-4.2-.6-5.2-1.8-1-1.2-1.5-3.1-1.5-5.6h2.7v1.5c0 .4.1.8.3 1.3.1.5.4.9.7 1.2.3.3.7.5 1.2.8.5.2 1.2.3 2 .3 1.1 0 2-.4 2.7-1.1.7-.7 1.1-1.7 1.1-2.8 0-.8-.2-1.6-.6-2.1-.4-.6-.9-1-1.5-1.3-.6-.3-1.3-.6-2-.8s-1.5-.5-2.2-.8c-.7-.3-1.4-.7-2-1.1-.6-.4-1.1-1-1.5-1.8-.4-.8-.6-1.7-.6-2.8 0-.5 0-1 .1-1.4.1-.5.3-1 .5-1.6s.6-1.1 1.1-1.5c.5-.4 1.1-.8 1.9-1.1.8-.3 1.7-.4 2.8-.4 4.2-.1 6.3 1.9 6.3 6.1zM279.2 421.3v-22.1h2.7v10.7h.1l7.7-10.7h3l-6.7 9.2 7.3 12.9h-3l-6-10.7-2.3 3.1v7.5h-2.8zM297 421.3v-22.1h2.7v22.1H297zM305.6 421.3v-22.1h2.7v19.7h9v2.4h-11.7zM321.7 421.3v-22.1h2.7v19.7h9v2.4h-11.7zM337.8 421.3v-22.1h2.7v22.1h-2.7zM346.4 421.3v-22.1h3.5l7.3 18.5h.1v-18.5h2.7v22.1h-3.7l-7.1-17.9h-.1v17.9h-2.7zM379.3 405.4h-2.9c-.1-2.9-1.4-4.3-3.7-4.3-.9 0-1.7.2-2.2.7-.6.5-1 1.1-1.3 2.1-.3.9-.5 1.9-.6 2.9s-.1 2.2-.1 3.6 0 2.7.1 3.6.3 1.9.6 2.9c.3.9.7 1.6 1.3 2.1.6.5 1.3.7 2.2.7.7 0 1.3-.2 1.9-.5.5-.3.9-.8 1.2-1.2.3-.5.5-1.1.6-1.8.2-.7.3-1.4.3-2 0-.6.1-1.2.1-1.9h-4.4v-2.2h6.8v11.5h-2v-3h-.1c-.3 1-.9 1.8-1.8 2.5s-1.9 1-3 1-2.1-.2-2.9-.7c-.8-.4-1.5-1-2-1.7s-.9-1.5-1.2-2.6c-.3-1-.5-2.1-.6-3.1-.1-1-.2-2.2-.2-3.5 0-1.2.1-2.4.2-3.4s.3-2 .6-3.1.7-1.9 1.2-2.6c.5-.7 1.2-1.3 2.1-1.7.9-.5 1.9-.7 3.1-.7.9 0 1.7.1 2.4.3.7.2 1.3.5 1.7.8.4.3.8.7 1.2 1.2.3.5.6.9.7 1.3s.3.8.4 1.3c.1.5.1.8.2 1.1.1-.2.1.1.1.4z" class="st0"/></g><g><path d="M394.8 399.2h4.5v22.1h-4.5v-22.1zM415.4 414.4l.1-15.2h4.1v22.1h-5.1l-5.5-15.5h-.1v15.5h-4.1v-22.1h5.1l5.5 15.2zM428.5 415.1c0 .5 0 1 .1 1.4.1.4.2.8.5 1.1.2.3.5.5.9.7.4.2.9.2 1.4.2.7 0 1.3-.2 1.8-.7.5-.4.8-1.1.8-2.1 0-.5-.1-.9-.2-1.3s-.4-.7-.7-1c-.3-.3-.7-.6-1.2-.8-.5-.2-1.1-.5-1.9-.7-1-.3-1.8-.7-2.6-1.1-.7-.4-1.3-.9-1.8-1.4-.5-.5-.8-1.1-1.1-1.8-.2-.7-.3-1.5-.3-2.4 0-2.2.6-3.8 1.8-4.9 1.2-1.1 2.9-1.6 5-1.6 1 0 1.9.1 2.7.3s1.6.6 2.2 1.1c.6.5 1.1 1.1 1.4 1.9.3.8.5 1.7.5 2.7v.6h-4.3c0-1.1-.2-1.9-.6-2.4-.4-.6-1-.9-1.9-.9-.5 0-.9.1-1.2.2-.3.1-.6.3-.8.6-.2.2-.3.5-.4.8s-.1.6-.1 1c0 .7.1 1.3.4 1.7.3.5.9.9 1.9 1.3l3.4 1.5c.8.4 1.5.8 2.1 1.2.5.4 1 .8 1.3 1.3s.5 1 .7 1.5c.1.6.2 1.2.2 1.9 0 2.3-.7 4-2 5.1s-3.2 1.6-5.7 1.6-4.3-.5-5.4-1.6c-1.1-1.1-1.6-2.7-1.6-4.7v-.9h4.5v.6zM456.3 402.9h-4.8v18.5H447v-18.5h-4.8v-3.7h14.1v3.7zM460.7 399.2h4.5v22.1h-4.5v-22.1zM483.8 402.9H479v18.5h-4.5v-18.5h-4.8v-3.7h14.1v3.7zM492.2 414.7c0 .6 0 1.1.1 1.5s.2.9.4 1.2c.2.3.5.6.8.8s.8.3 1.3.3 1-.1 1.3-.3.6-.5.8-.8c.2-.3.3-.7.4-1.2s.1-1 .1-1.5v-15.4h4.5v15.4c0 1.4-.2 2.6-.6 3.5-.4.9-.9 1.6-1.6 2.2s-1.4.9-2.3 1.1c-.8.2-1.7.3-2.6.3-.9 0-1.8-.1-2.6-.2-.8-.2-1.6-.5-2.3-1-.7-.5-1.2-1.2-1.6-2.2s-.6-2.1-.6-3.6v-15.4h4.5v15.3zM520 402.9h-4.8v18.5h-4.5v-18.5h-4.8v-3.7H520v3.7zM536.6 402.9h-7.9v5.2h7.4v3.7h-7.4v5.9h8.2v3.7h-12.7v-22.1h12.4v3.6z" class="st1"/></g><g><path d="M389.1 316.3v67.3c0 3.8-.9 4.7-4.7 4.7h-20.7c-3.6 0-4.6-1-4.6-4.7v-49.3c0-.4.1-.9 0-1.3-.2-.5-.4-1.2-.8-1.3-.5-.1-1.2.2-1.6.5-.4.4-.6 1-.9 1.6-8.6 16.6-17.1 33.2-25.7 49.8-.2.3-.4.7-.5 1-1.2 2.4-2.8 3.7-5.7 3.7-2.9 0-4.4-1.4-5.6-3.7l-14.7-28.5c-3.9-7.6-7.8-15.1-11.7-22.7-.3-.5-.5-1.1-.9-1.4-.4-.3-1-.5-1.5-.4-.3.1-.7.7-.8 1.1-.1.5-.1 1.1-.1 1.7V383.5c0 3.7-1 4.7-4.6 4.7h-21.4c-3 0-4-1-4.1-4V248.6c0-3.7.9-4.7 4.6-4.7 4.5 0 8.9.1 13.4 0 2.8-.1 4.5 1 5.6 3.5 2.4 5.2 4.9 10.5 7.4 15.7l32.4 69c.2.5.4.9.7 1.3.7 1.1 1.7 1.1 2.4 0 .3-.5.6-1.1.8-1.6 12.9-27.5 25.9-55 38.8-82.6l.3-.6c1.2-3.4 3.4-5 7.2-4.7 4.1.3 8.2.1 12.4.1 3.6 0 4.6.9 4.6 4.5v67.8" class="st0"/><path d="M643.8 384.1c-1.5.3-2.5-.6-3.2-1.8-.6-1.2-.4-2.4.5-3.3 1-1.1 2.2-1.3 3.6-.8V374c-2.1-.1-4.2.1-6.2 1.2-4.4 2.4-5.2 8.5-1.6 11.8 2.3 2.1 6.4 1.4 7.7-1.5V384s-.3 0-.8.1" class="st2"/><path d="M636 362.2c-.3.1-.5.2-.8.3-.8.3-1.6.7-2.4 1-2.1 1.6-4.3 3.1-6.4 4.7-.7 1.2-1.5 2.4-2.5 3.3-.1.1-.3.3-.5.4V372.5c0 .1 0 .1-.1.2s-.1.2-.3.2c0 .1 0 .1-.1.2-.4 1.7-1.2 3.4-1.5 5.2 0 .3-.1.5-.1.8-.4 3.7.4 7.4 2.1 10.6h6.4c-3.4-4.9-4.1-11.8-.2-16.8.1-.2.3-.3.5-.4.8-1.2 1.7-2.1 2.7-2.9 1-.8 2.2-1.4 3.5-1.8.2-.1.4-.2.7-.3 2-.9 4-1.3 6.1-1.3.5 0 .9 0 1.4.1.2 0 .3 0 .5.1v-4.5c-3.1-.6-6.1-.6-9 .3" class="st3"/><path d="M632.7 305.9c-6.6 0-12.7-1.8-18-4.9v75.9c.1-.5.2-1 .4-1.6.2-1.1.5-2.1.9-3 .3-.6.6-1.1 1-1.6.1-.5.2-.9.4-1.2.2-.4.5-.7.7-1 .2-.2.4-.4.5-.7v-.1c0-.1.1-.2.3-.2.1-.3.2-.6.4-.8.1-.1.2-.1.3-.2 3.6-4.7 8.6-7.8 14-9.2 1.7-.4 3.4-.7 5.2-.8 1.4-.1 2.8-.1 4.2.1.5.1 1.1.2 1.6.3v-53c-3.6 1.2-7.6 2-11.9 2M650.7 271.2c1.1 11.7-7.5 22.1-19.2 23.2s-22.1-7.5-23.2-19.2c-1.1-11.7 7.5-22.1 19.2-23.2 11.7-1.1 22.1 7.5 23.2 19.2" class="st0"/><path d="M506.7 383.8v-7.2c-2.1-6.7-4.1-13.5-6.2-20.2-11.1-36.1-22.3-72.2-33.4-108.3-.4-1.2-.7-2.1-1.2-2.7-2 .2-4.1.4-6.3.5-1.5.1-2.9.1-4.4.1-5.4 0-10.2-.4-14.8-1.3-.9.6-1.4 1.7-2 3.7-13.9 45.1-27.9 90.3-41.8 135.4-1 3.3-.2 4.5 3.3 4.5h21.4c3.5 0 4.6-.8 5.6-4.2 1.3-4.4 2.6-8.9 3.9-13.3.8-2.8 1.3-3.2 4.2-3.2h35.6c2.9 0 3.4.4 4.1 3.1 1.4 4.6 2.7 9.2 4 13.8.9 3.1 2 3.9 5.2 3.9h21.9c1.1 0 1.9-.2 2.5-.5-1.2-.6-1.6-1.8-1.6-4.1m-44.1-42.9H443c-2.1 0-2.5-.6-2-2.6l10.8-38.7c.2-.5.7-1 1.1-1.5.3.5.8.9.9 1.4l10.8 38.7c.5 2.1.1 2.7-2 2.7M597.8 378.9c-4.4-18.5-8.8-35.7-12.4-42.5-2.5-4.7-2.4-5.2 2.1-8.2 7.4-5 12.7-11.7 15.7-20.2 2.1-6.1 2.2-12.3 2.1-18.6-.2-15.5-6.2-28.1-19.2-36.9-4.7-3.2-9.8-5.4-15.1-6.7-6.8 8.2-13.4 14.6-20.5 19.8-2.5 1.9-5 3.5-7.3 5 5.2 0 10.4 0 15.5.6 6.1.7 11.4 3.5 14.5 9.2.6 1.1 1.1 2.2 1.4 3.4 1.2 5.2 1.4 10.5-.2 15.7-1.9 6.3-6.6 9.7-12.7 11.4-2.7.7-5.5 1.1-8.2 1.2-4.3.2-8.6.1-12.9.1-3 0-3.7-.8-3.7-3.8v-33.8c-2.1 1.2-4.2 2.2-6.2 3.2-3.4 1.6-7.3 3.4-11.8 4.4-3.1.7-5.7 1-8.3 1-1.3 0-2.5-.1-3.8-.3v93.7c.8 2.5 1.5 4.9 2.3 7.4.6 2.1.4 3.2-.7 3.8.7.3 1.6.5 2.9.5h21.8c2.5-.1 3.6-1.2 3.7-3.7v-40.5c0-3.2.7-3.9 3.9-3.9 3.7 0 7.5.1 11.2 0 3.1-.1 5 1.1 6.5 3.9 3 5.8 6.8 21.6 10.7 38.7 8.5-5.5 19.1-7 28.7-3.9" class="st1"/><path d="M508.9 384c-.8-2.5-1.5-4.9-2.3-7.4v7.2c0 2.3.4 3.5 1.6 4 1.2-.5 1.4-1.7.7-3.8" class="st1"/><path d="M582.9 391.8c4.6-2.2 9.4-2.1 14.2-.7 1.5.4 2.8 1 4.1 1.7-.5-2.2-1-4.3-1.6-6.5-1.1-.4-2.3-.9-3.4-1.3-4.8-1.1-9.7-1.4-14.5.1-1.4.4-2.7 1.1-4.1 1.6-2.2 1.6-4.3 3.2-6.5 4.8.6 2.7 1.2 5.3 1.8 7.9.1-.2.2-.4.4-.6.2-.2.4-.4.6-.5 2-3 4.7-5 8.1-6.1.3-.2.6-.3.9-.4M610.9 429.1c-.4.6-.7 1.2-1.1 1.7-.4.6-.9 1.1-1.6 1.4l-.8.9-.4.4c-2.3 3.2-5.6 5.3-9.1 6.8-1 .6-2 1.1-3.1 1.4h10.6c2.2-1.4 4.2-3 6-5 .6-.7 1.1-1.4 1.6-2.1-.7-1.5-1.4-3.4-2.1-5.5" class="st3"/><path d="M604.3 424c.2-.7.3-1.5.9-2.1.9-3.9 1.2-7.8-.1-11.7-1.3-3.8-3.5-6.8-7.2-8.5-.7-.3-1.2-.7-1.7-1.2-.7.3-1.4.1-2.1 0-3.1-.3-6.1 0-8.9 1.5-5.7 3.1-6.8 11-2 15.4 3 2.8 8.3 1.8 10-1.9.5-1.1 1.1-2.4-1.2-1.9-1.9.4-3.3-.8-4.1-2.4-.8-1.5-.5-3.1.7-4.3 1.3-1.4 2.9-1.7 4.7-1.1.5.2.9.5 1 1 1.1.4 1.7 1.2 2 2.3 3.1 3.7 3.9 9.1 1.9 12.7-2.8 5-7.6 7.2-13.6 6.1-1.8-.3-3.5-1-5-1.8.9 3 1.7 5.7 2.5 7.8 2.1 0 4.3.1 6.4-.1 6.8-.5 12.3-3.6 15.8-9.8" class="st4"/><path d="M582 220.7c1 .4 1.8 1 2.5 1.7s1.3 1.5 1.7 2.5c.4 1 .6 2 .6 3.1s-.2 2.1-.6 3.1c-.4 1-1 1.8-1.7 2.5s-1.5 1.3-2.5 1.7c-1 .4-2 .6-3.1.6s-2.2-.2-3.1-.6c-1-.4-1.8-1-2.5-1.7s-1.3-1.5-1.7-2.5c-.4-1-.6-2-.6-3.1s.2-2.1.6-3.1c.4-1 1-1.8 1.7-2.5s1.5-1.3 2.5-1.7c1-.4 2-.6 3.1-.6s2.2.2 3.1.6m-5.7 1.1c-.8.4-1.5.8-2.1 1.4s-1.1 1.3-1.4 2.1c-.3.8-.5 1.7-.5 2.6 0 .9.2 1.8.5 2.6s.8 1.5 1.4 2.1c.6.6 1.3 1.1 2.1 1.4.8.4 1.7.5 2.7.5.9 0 1.8-.2 2.6-.5s1.5-.8 2.1-1.4c.6-.6 1.1-1.3 1.4-2.1.3-.8.5-1.7.5-2.6 0-.9-.2-1.8-.5-2.6s-.8-1.5-1.4-2.1c-.6-.6-1.3-1.1-2.1-1.4-.8-.4-1.7-.5-2.6-.5-1-.1-1.9.1-2.7.5m-.2 10.7v-9.1h3.5c1 0 1.8.2 2.3.6.5.4.7 1.1.7 1.9 0 .4-.1.7-.2 1-.1.3-.3.5-.5.8-.2.2-.5.4-.7.5l-.9.3 2.7 4h-1.3l-2.6-4h-1.9v4h-1.1zm3.6-5c.3 0 .6-.1.9-.2.3-.1.5-.3.6-.5.2-.2.2-.5.2-.9 0-.3-.1-.6-.2-.8-.1-.2-.3-.4-.5-.5-.2-.1-.4-.2-.7-.2-.3 0-.5-.1-.8-.1h-2.1v3.2h2.6M511.7 206.2c4.4-6.6 7.1-13.8 8.3-21.6.9-6.5.4-12.9-1.1-19.2-1.3-5.3-3.6-10.2-6.4-14.8-1.7-2.7-3.6-5.3-5.7-7.6-1.8-2-4-3.8-6.2-5.5-3.8-2.9-8-5.4-12.5-6.9-7.1-2.3-11.2-2.7-18.7-2.1-1.8.1-3.6.4-5.4.8-6.7 1.5-12.7 4.4-18 8.6-4.8 3.9-8.6 8.8-11 14.6-1.8 4.4-2.8 8.9-2.8 13.5 0 4.4.5 8.8 2 13l13.1-3c0-.1-.1-.2-.2-.2-1.3-2.2-1.8-4.9-1.8-7.5 0-1.2.1-2.3.2-3.4.4-3.9 1.7-7.4 3.6-10.6 1.3-2.3 3-4.4 4.9-6.3 4-4 9-6.2 14.6-6.9 5.1-.7 10.2-.3 15.2 1.5 1.4.5 2.8 1.1 4.2 1.7 1.8.8 3.4 1.8 5.1 2.9 2.4 1.6 4.6 3.5 6.6 5.7 5.4 6.1 8.3 13.3 8.7 21.5.3 8-1.4 15.5-5.1 22.5-6.7 12.6-17.5 19.4-31.4 21.5-7.1 1.1-14.2.5-21.2-1.5-3.7-1.1-7.2-2.5-10.6-4.1-3.1-1.4-5.7-3.5-8.2-5.7-3.4-2.8-6.4-6-8.8-9.5-1-1.4-1.8-2.8-2.6-4.3l-13.2 4.8c2.3 4.3 4.8 8.3 8.1 12 2 2.3 4.1 4.5 6.4 6.6 3.1 2.8 6.5 5.2 10.1 7.3 3.4 2 6.9 3.8 10.7 4.9 3.2 1 6.3 2.1 9.6 2.8 4.9 1 9.8 1.2 14.8 1 4.6-.2 9.1-.8 13.5-2.2 6.3-2 12.2-4.9 17.5-8.9 5.1-4.3 9.8-9.5 13.7-15.4" class="st1"/><path d="M487.5 166.2c-3.6-6.1-10-9.6-17.4-5.8-3.5 1.8-5.2 4.6-3.6 8.5.3.9.8 1.7 1.2 2.5l20.1-4.7c-.1-.1-.2-.3-.3-.5" class="st1"/><path d="M572.3 172.9c-.4-5.7-1.4-11.3-2.8-16.7-1-3.6-2.2-7.2-3.6-10.7-1.6-3.8-3.3-7.4-5.2-11-3.8-7.1-9-13.2-14.5-19.1-4.4-4.6-9.5-8.4-14.9-11.9-4.6-3-9.4-5.4-14.5-7.5-4.6-1.9-9.4-3.3-14.3-4.3-4.6-.9-9.2-1.7-13.9-1.8-5.6-.2-11.2-.1-16.8 1-2.6.5-5.2.8-7.8 1.3-3.3.6-6.3 1.9-9.5 2.8-2 .6-3.9 1.3-5.8 2.1-2.8 1.2-5.6 2.6-8.3 4-5 2.7-9.7 5.9-14.1 9.5-4.8 4-9 8.4-12.7 13.4-1.4 2-2.8 4-4 6.1-3 5.1-5.2 10.5-7 16.2-.2.7-.4 1.4-.6 2l-.6.6s-2.4 9.5-1.6 22v1c0 .3 0 .6.1.9.1 1.5.3 3.1.5 4.6v.4c.3 2.3.8 4.6 1.4 6.8.2.7.4 1.3.6 2l13.5-3.1c-.7-2.3-1.3-4.6-1.8-6.9.2-.4.4-.7.4-.7s-.8-2.1-1.1-6.1c-.1-1.4-.1-2.7 0-4.1 0-.3 0-.5-.1-.8.2-5.1 1.2-11.9 4.3-20 .4-1 .7-1.8.9-2.6 1.5-3.5 3.4-6.7 5.6-9.8 7.4-10.1 16.9-17.4 28.8-21.6 5.5-1.9 11.2-3 17.1-3.2 7.8-.2 15.5.5 22.8 3.6 1.8.8 3.8 1.3 5.7 2.1 7.7 3.5 14.2 8.6 19.8 14.9 2.7 3.1 5 6.4 6.9 10 1.2 2.2 2.4 4.5 3.4 6.9.6 1.4.9 2.9 1.4 4.4 1.6 5 2.7 10.1 2.7 15.3 0 1.1.8 2.8 1.6 4 .3.5.6.9.8 1.2 2.9 3.4 4.8 5.6 7.7 8.8.2.2.3.3.4.5 1.2 1.3 1.9 2.8 3.1 4 1.1 1 .5.5 1.1 1.8.5 1.1-.4 4-1.3 4.6-1.5 1.1-1.5.6-3.1 1.1-1.5.5-3.1.8-4.5 1.5-1.2.7-1.7 2-.6 3.3 1 1.2 1.8 3.7 2.9 4.9.9 1.1.5 2.2.6 3.3 0 .1-.2.3-.3.5-.1 0-.1.1-.2.1-1.4.6-2.8 2.5-2.8 2.5 0 .1 0 .3.1.4l-.1-.1c.2.8 1.6.9 1.3 2.6-.2 1.2.1 1.7-1.2 2.2-.3.1-.6.3-.8.6-1.7 2-2.1 3-1.3 5.6 1 3.1 1.6 6.2 1.3 9.5-.3 3.1-1.8 5.3-4.5 6.7-3.3 1.7-7 2-10.5 2.2-5 .2-9.6 1.1-14 3.4-5 2.6-8.8 6.4-9.9 12.3-.7 3.5.8 7.1 3.8 9 1.4.8 2.8 1.3 4.2 1.5 2.3.4 4.7 0 7.1-.5 2.9-.7 5.5-1.9 8.2-3.1 5.4-2.5 10.3-5.6 15-9.1 2.7-1.9 5.1-4.1 7.5-6.4 3.9-3.8 7.5-7.8 10.9-12.2l3-4.2c2.1-3.4 3.9-6.9 5.7-10.5 1.5-2.8 2.7-5.7 3.6-8.7 1-3.1 2-6.3 2.7-9.5.9-4.1 1.6-8.2 1.9-12.4.5-4.3.6-8.9.2-13.4" class="st1"/><path d="M439.4 189.7c2.5 3.2 5.3 6.2 9 8.3 4.2 2.4 8.7 4 13.6 4.2 5.4.3 10.6-.9 15.4-3.3 6.1-2.9 10.4-7.6 12.4-14.1 1.7-5.7 1.3-11.2-1.2-16.4l-19.1 6.9c.2.4.4.7.5 1.1.8 1.8.8 3.6.1 5.4-1.2 3-3.7 4.2-6.7 4.4-2.6.2-5-.6-7.4-1.6-1.6-.7-3.1-1.7-4.4-2.7l-14.2 5.1c.8.9 1.4 1.8 2 2.7" class="st1"/><path d="M150.9 368.1c.3-3 1.4-6 3.3-8.7 2.8-4 6.4-6.6 11.4-7.1 1.2-.2 2.5-.3 3.8-.3.6 0 1.3.1 1.9.2 1.2.2 2.3.5 3.4.8-.5-1.5-.9-3.1-1-4.9-.1-.7-.2-1.3-.5-1.7-2.4-.3-4.9-.5-7.3-.8-.5.5-1.3.4-1.9.5-8 1.2-13.7 5.3-16.9 11.9.5 2.3 1.2 4.5 2.1 6.7.5 1.1 1 2.3 1.7 3.4M188.6 369.2c.2.2.3.5.2.8 0 .1-.1.2-.1.3 0 .2.1.4.1.6 0 .3 0 .7.1 1v.6c0 .2 0 .4.1.6v1.6c.2.4.3.7.1 1.1-.1.1-.1.2-.2.3.4.8.1 1.5-.2 2.3 0 .1-.1.2-.1.3 0 .2-.1.4-.1.6-.1 1.1-.4 2.2-.9 3.1l-.6.9v.1c0 .1 0 .1-.1.1-.7 2-1.9 3.7-3.2 5.2 1.8.4 3.5.6 5.3.8.3-.3.5-.6.8-.9.2-.2.3-.5.5-.7.5-1 1-2 1.5-3.1.1-.2.2-.4.2-.5.3-.7.6-1.4.8-2.1.1-.2.1-.4.2-.5.4-1.1.7-2.2.9-3.3.3-1.5.5-3 .6-4.6-.2-.4-.2-.8-.2-1.3 0-.1 0-.3.1-.4-.2-.4-.2-.8 0-1.1-.3-2.1-.8-4.1-1.4-6.1-2-.3-4-.7-6-1.4.7 1.9 1.3 3.8 1.6 5.7" class="st3"/><path d="M167.8 361.9c-3.1.2-5.4 1.8-6.9 4.6-.5.9-.9 1.9-1.3 2.9-.1 1.5.1 2.8.7 4 .4.9 1.1 1.8 2 2.5.2.1.5.3.7.4.1-.1.2-.1.2 0v.2c.1.1.2.2.4.2.4.1.8.1 1.2.1.8-.1 1.6-.2 2.4-.4.3-.1.5-.1.8-.2 1-.4 2.1-.9.3-2-1.5-.9-1.8-2.6-1.4-4.2.4-1.6 1.5-2.5 3.1-2.7 1.8-.2 3.1.5 4 2 .3.5.4 1 .1 1.5.4.7.4 1.4.2 2.1-.1.2-.2.5-.3.7-.1 1.4-.4 2.8-.9 4-.2.5-.5 1-.7 1.5-.5.8-1 1.5-1.6 2.1l-.6.6c-.8.7-1.7 1.2-2.7 1.6 1.7.8 3.4 1.6 5.2 2.3.6.2 1.2.4 1.7.5 3.5-2.9 5.8-7.1 6.3-11 .7-7-5.6-13.9-12.9-13.3" class="st4"/><path d="M239.6 321.8c-5.4-5.6-11.9-9.5-18.9-12.6-8-3.5-16.2-6.7-24.3-10.2-5.1-2.2-9.9-4.7-13.7-9-5.6-6.2-5.2-18.8 6.6-21.8 5.1-1.3 10.3-1.3 15.3.4 6.5 2.2 10.6 6.5 11.5 13.5.3 2.6 1 3.2 3.6 3.3h21.1c2.1 0 2.8-.7 3-2.7.1-.6 0-1.1 0-1.7-.4-16.5-9.6-29.5-25.2-35-14.1-5-28.4-5-42.7-.9-7.6 2.2-14.2 6.2-19.2 12.4-5.9 7.4-8 16.1-8 25.4.1 7.8 1.9 15.1 6.6 21.5 4.3 6 10.1 10.3 16.8 13.1 8.1 3.5 16.3 6.4 24.6 9.5 5.7 2.2 11.5 4.2 16.4 8 5.6 4.3 8 10 6.7 17-1.2 6.5-5.5 10.1-11.6 11.8-3.1.9-6.2 1.3-9.3 1.4.1.5.3 1.1.3 1.6.1.9.2 1.8.2 2.8.5 2.3.6 4.7.3 7-.2 1.4-.5 2.8-.9 4.1v.1c-.4 3.3-1.8 6.3-3.6 9.1-.1.1-.1.2-.2.3 7.9.3 15.8-.5 23.7-2.3 7.4-1.7 14.1-4.8 19.8-9.9 7.6-6.9 11-15.7 11.6-25.8.8-11.5-2.2-21.9-10.5-30.4" class="st0"/></g></svg>
